<?xml version="1.0" encoding="UTF-8" standalone="no"?>
<!DOCTYPE svg PUBLIC "-//W3C//DTD SVG 1.1//EN" "http://www.w3.org/Graphics/SVG/1.1/DTD/svg11.dtd">
<svg width="100%" height="100%" viewBox="0 0 600 158" version="1.1" xmlns="http://www.w3.org/2000/svg" xmlns:xlink="http://www.w3.org/1999/xlink" xml:space="preserve" xmlns:serif="http://www.serif.com/" style="fill-rule:evenodd;clip-rule:evenodd;stroke-linejoin:round;stroke-miterlimit:2;">
    <g transform="matrix(1,0,0,1,-383.997385,-203.869438)">
        <g transform="matrix(1,0,0,1,641,275)">
            <g transform="matrix(0.405251,0,0,0.405251,-152.852025,-42.304824)">
                <g transform="matrix(1.737305,0,0,1.737305,-407,-153)">
                    <path d="M172.501,256.058C165.105,255.887 165.112,255.925 164.47,255.893C152.431,255.297 144.621,245.725 143.232,236.546C142.249,230.055 141.039,161.052 140.923,154.486C140.23,114.987 139.028,111.132 142.93,102.7C148.726,90.178 162.516,88.01 167.507,87.955C231.029,87.265 230.984,87.018 236.505,86.993C260.088,86.886 261.727,86.411 267.529,88.426C275.666,91.252 280.568,100.294 281.114,106.556C281.593,112.051 281.729,113.612 280.074,175.494C278.646,228.902 278.849,228.868 278.697,233.508C278.044,253.548 266.799,257.843 254.601,262.746C238.747,269.119 230.64,273.809 225.831,270.067C219.904,265.454 225.203,256.807 220.517,256.332C216.695,255.945 216.703,256.328 172.501,256.058Z" style="fill:rgb(235,83,58);"/>
                </g>
                <g transform="matrix(0.872881,0,0,1.300578,-603.084746,-132.473988)">
                    <path d="M668,137.021L668,294.285C668,294.285 668,294.286 668,294.286C668,299.264 661.977,303.307 654.559,303.307L563.441,301C556.023,301 550,296.958 550,291.979L544.272,137.021C544.272,132.042 550.295,128 557.713,128L661.432,128C668.851,128 668,132.042 668,137.021Z" style="fill:rgb(17,32,43);"/>
                </g>
                <g transform="matrix(1.737305,0,0,1.737305,-407,-153)">
                    <path d="M343.531,134.905C350.998,134.566 365.892,133.065 376.3,144.68C383.913,153.175 384.457,166.093 384.078,170.465C381.6,199.028 350.154,199.595 348.54,199.831C344.552,200.413 346.722,202.412 348.004,216.541C348.732,224.552 350.497,227.504 342.514,228.619C336.668,229.435 330.803,231.047 329.306,225.55C329.139,224.935 322.958,174.767 322.101,166.54C320.409,150.294 317.01,142.603 322.712,138.846C325.477,137.024 341.848,135.103 343.531,134.905Z" style="fill:rgb(18,32,43);"/>
                </g>
                <g transform="matrix(1.737305,0,0,1.737305,-407,-153)">
                    <path d="M705.449,199.064C704.306,199.182 701.172,198.724 701.106,201.461C700.989,206.347 703.405,222.35 701.699,225.623C699.677,229.502 687.115,229.152 685.691,228.184C682.379,225.932 683.266,223.562 682.578,213.496C681.74,201.228 680.837,182.168 679.242,158.52C678.155,142.409 678.331,141.969 678.862,140.641C680.865,135.632 686.273,136.467 690.547,135.771C741.22,127.527 740.522,160.053 740.122,170.487C739.34,190.877 720.132,196.478 717.437,197.264C714.324,198.172 712.239,198.578 705.449,199.064Z" style="fill:rgb(235,83,58);"/>
                </g>
                <g transform="matrix(1.737305,0,0,1.737305,-407,-153)">
                    <path d="M416.499,163.115C418.027,163.182 428.305,163.633 434.531,169.468C443.062,177.464 441.319,183.366 441.279,222.496C441.272,228.491 437.653,228.358 430.5,228.639C424.543,228.872 426.236,221.568 423.305,224.095C419.097,227.724 412.939,229.767 407.497,229.651C384.657,229.162 382.564,202.422 395.806,193.942C409.636,185.086 421.489,192.188 423.185,191.077C424.595,190.154 424.911,176.444 411.462,178.222C405.592,178.998 400.224,186.2 395.913,179.239C391.313,171.81 394.429,169.91 397.176,168.032C404.912,162.745 412.813,163.201 416.499,163.115Z" style="fill:rgb(17,31,43);"/>
                </g>
                <g transform="matrix(1.737305,0,0,1.737305,-407,-153)">
                    <path d="M747.305,225.79C733.361,214.611 739.611,192.909 757.578,189.875C769.433,187.873 775.197,193.565 775.393,189.489C776.008,176.7 765.608,176.479 758.703,179.871C754.319,182.025 752.002,185.257 747.159,176.679C741.619,166.866 760.192,163.315 764.479,163.154C796.23,161.958 793.159,186.958 792.78,201.51C792.253,221.733 792.511,221.726 792.327,223.474C792.22,224.493 791.661,229.79 780.51,228.419C775.592,227.814 777.243,221.586 774.292,224.109C767.876,229.595 756.924,232.23 747.305,225.79Z" style="fill:rgb(234,83,57);"/>
                </g>
                <g transform="matrix(1.737305,0,0,1.737305,-407,-153)">
                    <path d="M640.168,205.221C651.16,169.301 649.997,168.033 653.553,166.618C656.094,165.607 666.344,167.523 667.511,169.492C669.183,172.31 668.368,172.623 662.505,190.502C661.181,194.539 649.231,230.977 644.334,240.406C634.153,260.009 613.023,252.625 611.412,248.539C610.517,246.267 612.927,235.548 617.488,235.835C619.177,235.941 626.567,240.171 630.135,229.372C631.083,226.5 629.698,226.576 617.603,195.458C608.413,171.81 607.396,170.448 610.741,167.844C611.676,167.116 622.697,164.415 625.288,166.759C627.211,168.498 627.811,173.098 633.81,190.4C635.879,196.368 638.669,205.201 638.752,205.248C638.851,205.303 638.856,205.246 640.168,205.221Z" style="fill:rgb(18,32,43);"/>
                </g>
                <g transform="matrix(1.737305,0,0,1.737305,-407,-153)">
                    <path d="M460.506,166.041C464.7,165.944 469.157,165.779 469.502,170.5C469.858,175.387 471.695,168.383 480.38,166.015C497.235,161.419 504.793,175.039 505.208,184.519C505.786,197.735 505.127,197.698 503.765,222.52C503.351,230.064 499.298,229.04 490.526,228.229C483.27,227.558 486.513,219.736 487.265,195.493C487.282,194.957 488.678,181.398 479.475,182.197C474.214,182.653 470.411,188.653 470.123,194.473C470.004,196.871 468.758,222.027 468.125,224.413C467.409,227.113 466.496,228.778 455.47,227.892C449.744,227.432 450.777,223.509 451.141,209.49C451.164,208.623 452.688,175.481 452.824,172.524C453.153,165.385 456.293,166.046 460.506,166.041Z" style="fill:rgb(18,32,43);"/>
                </g>
                <g transform="matrix(1.737305,0,0,1.737305,-407,-153)">
                    <path d="M809.514,228.041C806.476,227.928 803.608,228.141 801.89,226.194C801.006,225.191 800.286,224.374 801.395,209.494C802.067,200.478 801.793,200.511 802.342,191.492C803.684,169.402 803.001,168.746 805.703,166.814C806.458,166.274 819.303,163.855 819.695,170.465C819.799,172.228 820.461,172.958 821.586,171.627C824.351,168.353 830.156,164.935 836.509,165.155C859.638,165.957 854.81,197.928 854.657,199.512C852.156,225.412 853.121,226.172 850.263,228.114C849.202,228.835 838.331,229.568 835.869,226.254C833.899,223.601 837.518,202.327 837.204,191.507C836.856,179.488 827.929,182.203 825.703,183.801C819.266,188.421 820.384,193.431 818.323,219.49C817.791,226.222 817.607,228.245 809.514,228.041Z" style="fill:rgb(234,83,58);"/>
                </g>
                <g transform="matrix(1.737305,0,0,1.737305,-407,-153)">
                    <path d="M545.498,181.232C540.907,181.32 537.225,180.618 537.069,183.449C535.568,210.66 538.251,211.766 540.426,212.663C546.481,215.16 551.435,207.118 553.928,214.349C555.362,218.507 559.732,226.237 545.604,228.982C515.344,234.863 518.766,204.185 518.812,197.504C518.913,182.875 519.289,181.849 517.517,181.426C516.568,181.2 510.191,182.591 509.922,176.474C509.774,173.095 509.1,165.918 514.516,165.671C518.075,165.51 518.219,165.926 519.101,165.079C521.356,162.914 517.473,147.583 523.353,146.036C533.866,143.271 535.339,144.368 536.164,144.983C540.769,148.414 535.681,163.933 538.547,165.403C541.404,166.868 552.935,162.095 553.236,170.523C553.448,176.454 553.128,177.804 552.813,178.635C551.522,182.034 545.778,181.227 545.498,181.232Z" style="fill:rgb(18,32,44);"/>
                </g>
                <g transform="matrix(1.737305,0,0,1.737305,-407,-153)">
                    <path d="M912.456,229.927C895.81,227.39 889.336,213.634 889.073,201.511C888.391,170.108 912.784,162.011 928.43,167.718C944.249,173.488 937.085,180.603 936.022,182.179C931.211,189.315 929.479,185.712 926.214,183.977C906.351,173.422 900.087,208.585 914.494,213.519C925.308,217.222 928.918,205.877 933.956,212.143C939.013,218.434 939.318,222.107 933.53,225.544C925.468,230.33 920.305,230.362 912.456,229.927Z" style="fill:rgb(234,83,58);"/>
                </g>
                <g>
                    <g transform="matrix(1.737305,0,0,1.737305,-407,-153)">
                        <path d="M181.435,137.492C184.011,136.556 184.061,136.764 190.506,136.673C195.407,136.603 195.392,136.66 197.617,137.486C197.856,141.561 197.679,142.179 200.817,147.298C205.867,155.54 205.497,155.916 205.444,171.5C205.378,190.952 205.84,191.291 203.484,194.487C201.401,195.547 201.413,195.609 198.501,195.632C177.983,195.796 177.59,195.668 175.869,195.104C172.814,192.657 173.225,190.313 173.222,186.498C173.199,157.35 173.163,157.309 173.728,155.57C176.819,146.05 180.898,147.463 181.435,137.492Z" style="fill:rgb(253,253,253);"/>
                    </g>
                    <g transform="matrix(1.737305,0,0,1.737305,-407,-153)">
                        <path d="M198.809,135.643C198.412,136.257 198.014,136.872 197.617,137.486C195.392,136.66 195.407,136.603 190.506,136.673C184.061,136.764 184.011,136.556 181.435,137.492C181.248,137.197 181.303,136.79 181.116,136.496C181.03,136.361 179.802,135.725 179.714,133.493C179.512,128.352 182.683,128.902 192.496,128.951C193.067,128.954 201.602,127.504 198.809,135.643Z" style="fill:rgb(232,81,55);"/>
                    </g>
                </g>
                <g transform="matrix(1.737305,0,0,1.737305,-407,-153)">
                    <path d="M577.452,228.096C570.232,228.37 563.953,229.876 563.652,223.493C563.452,219.26 561.361,174.883 561.951,170.555C562.671,165.272 567.542,165.825 572.502,165.588C580.008,165.227 578.373,171.975 578.716,172.375C579.58,173.382 581.017,171.38 581.143,171.205C588.343,161.172 605.496,162.483 604.535,170.503C604.494,170.845 602.946,180.643 601.341,182.346C598.124,185.758 590.23,178.368 583.839,187.725C577.383,197.177 584.893,223.285 580.144,227.053C579.389,227.653 579.329,227.5 577.452,228.096Z" style="fill:rgb(18,32,43);"/>
                </g>
                <g transform="matrix(1.540984,0,0,1.777778,-968.836066,-635.333333)">
                    <rect x="545" y="462" width="61" height="9" style="fill:rgb(235,83,58);"/>
                </g>
                <g transform="matrix(1.737305,0,0,1.737305,-407,-153)">
                    <path d="M214.148,195.416C214.656,185.898 213.629,112.974 214.732,110.593C215.915,108.039 218.055,108.027 219.529,107.907C223.737,107.564 222.717,110.177 222.704,118.499C222.612,177.022 223.019,236.187 222.426,239.012C213.162,239.454 214.246,235.781 214.241,226.499C214.236,216.528 214.309,216.561 214.162,206.579C214.26,200.96 214.255,200.999 214.148,195.416Z" style="fill:rgb(252,251,251);"/>
                </g>
                <g transform="matrix(1.737305,0,0,1.737305,-407,-153)">
                    <path d="M873.504,170.128C879.492,170.347 883.463,170.001 882.891,178.539C882.703,181.337 882.849,181.341 880.837,213.524C880.066,225.844 879.245,226.646 878.437,227.436C876.056,229.761 865.624,229.253 863.507,226.495C861.556,223.952 862.652,223.539 864.096,190.483C864.753,175.446 864.395,175.376 865.211,173.355C866.943,169.064 873.402,170.128 873.504,170.128Z" style="fill:rgb(235,83,58);"/>
                </g>
                <g transform="matrix(1.737305,0,0,1.737305,-407,-153)">
                    <path d="M343.561,152.965C349.168,152.38 351.195,152.114 354.409,152.864C361.338,154.48 363.91,161.474 364.127,164.542C365.096,178.188 358.576,181.311 347.512,182.662C343.935,183.1 343.812,182.082 343.338,178.525C343.094,176.685 340.621,158.094 340.466,155.501C340.322,153.092 343.173,153.063 343.561,152.965Z" style="fill:rgb(251,251,252);"/>
                </g>
                <g transform="matrix(1.737305,0,0,1.737305,-407,-153)">
                    <path d="M720.929,164.469C721.049,167.122 722.297,175.67 713.363,180.227C710.735,181.567 700.477,183.728 699.786,180.455C699.39,178.577 699.71,178.555 698.313,156.513C698.021,151.91 699.892,152.591 704.481,152.249C720.827,151.03 720.914,164.302 720.929,164.469Z" style="fill:rgb(253,252,252);"/>
                </g>
                <g transform="matrix(1.737305,0,0,1.737305,-407,-153)">
                    <path d="M104.581,90.333C101.183,88.57 95.575,85.604 94.321,84.844C93.791,84.523 89.466,81.901 91.655,77.568C95.213,70.528 103.607,76.068 108.611,79.312C119.183,86.164 126.177,88.636 123.401,94.446C120.672,100.155 114.678,95.434 104.581,90.333Z" style="fill:rgb(235,83,58);"/>
                </g>
                <g transform="matrix(1.737305,0,0,1.737305,-407,-153)">
                    <path d="M133.297,78.958C130.264,77.058 128.68,72.163 121.109,56.686C116.961,48.207 125.574,47.018 126.55,47.131C131.36,47.689 132.201,52.686 136.675,63.429C137.352,65.054 146.362,81.929 133.297,78.958Z" style="fill:rgb(235,83,58);"/>
                </g>
                <g transform="matrix(1.737305,0,0,1.737305,-407,-153)">
                    <path d="M112.466,120.056C96.978,121.326 88.144,124.729 86.472,117.507C85.804,114.62 87.627,110.602 92.49,110.317C94.249,110.214 108.241,109.392 114.499,109.61C121.655,109.86 122.246,118.919 114.553,119.845C113.859,119.928 113.16,119.972 112.466,120.056Z" style="fill:rgb(235,83,58);"/>
                </g>
                <g transform="matrix(1.737305,0,0,1.737305,-407,-153)">
                    <path d="M870.38,160.918C868.936,160.336 864.081,158.943 864.867,150.542C865.288,146.046 868.548,142.472 873.475,142.136C888.055,141.142 886.026,154.472 884.168,157.28C880.586,162.691 875.173,161.91 870.38,160.918Z" style="fill:rgb(236,85,59);"/>
                </g>
                <g transform="matrix(1.737305,0,0,1.737305,-407,-153)">
                    <path d="M253.497,191.767C243.216,189.331 246.549,174.386 251.383,172.263C260.776,168.137 265.4,189.169 253.497,191.767Z" style="fill:rgb(253,251,251);"/>
                </g>
                <g transform="matrix(1.737305,0,0,1.737305,-407,-153)">
                    <path d="M417.421,201.9C423.069,203.417 424.744,203.799 423.274,209.438C421.15,217.582 403.078,217.664 405.429,207.483C406.225,204.037 409.065,202.776 409.533,202.568C413.075,200.995 415.984,201.745 417.421,201.9Z" style="fill:rgb(251,251,251);"/>
                </g>
                <g transform="matrix(1.737305,0,0,1.737305,-407,-153)">
                    <path d="M763.561,201.814C768.284,201.228 774.772,202.01 775.021,205.51C775.916,218.081 755.207,218.757 757.266,207.467C757.983,203.54 762.914,202.014 763.561,201.814Z" style="fill:rgb(253,251,251);"/>
                </g>
            </g>
        </g>
    </g>
</svg>
