<?xml version="1.0" encoding="UTF-8" standalone="no"?>
<!DOCTYPE svg PUBLIC "-//W3C//DTD SVG 1.1//EN" "http://www.w3.org/Graphics/SVG/1.1/DTD/svg11.dtd">
<svg width="100%" height="100%" viewBox="0 0 275 316" version="1.1" xmlns="http://www.w3.org/2000/svg" xmlns:xlink="http://www.w3.org/1999/xlink" xml:space="preserve" xmlns:serif="http://www.serif.com/" style="fill-rule:evenodd;clip-rule:evenodd;stroke-linejoin:round;stroke-miterlimit:2;">
    <g transform="matrix(1,0,0,1,-383.997385,-203.869438)">
        <g transform="matrix(0.810502,0,0,0.810502,592.298565,261.520914)">
            <g transform="matrix(1.737305,0,0,1.737305,-407,-153)">
                <path d="M172.501,256.058C165.105,255.887 165.112,255.925 164.47,255.893C152.431,255.297 144.621,245.725 143.232,236.546C142.249,230.055 141.039,161.052 140.923,154.486C140.23,114.987 139.028,111.132 142.93,102.7C148.726,90.178 162.516,88.01 167.507,87.955C231.029,87.265 230.984,87.018 236.505,86.993C260.088,86.886 261.727,86.411 267.529,88.426C275.666,91.252 280.568,100.294 281.114,106.556C281.593,112.051 281.729,113.612 280.074,175.494C278.646,228.902 278.849,228.868 278.697,233.508C278.044,253.548 266.799,257.843 254.601,262.746C238.747,269.119 230.64,273.809 225.831,270.067C219.904,265.454 225.203,256.807 220.517,256.332C216.695,255.945 216.703,256.328 172.501,256.058Z" style="fill:rgb(235,83,58);"/>
            </g>
            <g transform="matrix(0.872881,0,0,1.300578,-603.084746,-132.473988)">
                <path d="M668,137.021L668,294.285C668,294.285 668,294.285 668,294.286C668,299.264 661.977,303.307 654.559,303.307L563.441,301C556.023,301 550,296.958 550,291.979L544.272,137.021C544.272,132.042 550.295,128 557.713,128L661.432,128C668.851,128 668,132.042 668,137.021Z" style="fill:rgb(17,32,43);"/>
            </g>
            <g>
                <g transform="matrix(1.737305,0,0,1.737305,-407,-153)">
                    <path d="M181.435,137.492C184.011,136.556 184.061,136.764 190.506,136.673C195.407,136.603 195.392,136.66 197.617,137.486C197.856,141.561 197.679,142.179 200.817,147.298C205.867,155.54 205.497,155.916 205.444,171.5C205.378,190.952 205.84,191.291 203.484,194.487C201.401,195.547 201.413,195.609 198.501,195.632C177.983,195.796 177.59,195.668 175.869,195.104C172.814,192.657 173.225,190.313 173.222,186.498C173.199,157.35 173.163,157.309 173.728,155.57C176.819,146.05 180.898,147.463 181.435,137.492Z" style="fill:rgb(253,253,253);"/>
                </g>
                <g transform="matrix(1.737305,0,0,1.737305,-407,-153)">
                    <path d="M198.809,135.643C198.412,136.257 198.014,136.872 197.617,137.486C195.392,136.66 195.407,136.603 190.506,136.673C184.061,136.764 184.011,136.556 181.435,137.492C181.248,137.197 181.303,136.79 181.116,136.496C181.03,136.361 179.802,135.725 179.714,133.493C179.512,128.352 182.683,128.902 192.496,128.951C193.067,128.954 201.602,127.504 198.809,135.643Z" style="fill:rgb(232,81,55);"/>
                </g>
            </g>
            <g transform="matrix(1.540984,0,0,1.777778,-968.836066,-635.333333)">
                <rect x="545" y="462" width="61" height="9" style="fill:rgb(235,83,58);"/>
            </g>
            <g transform="matrix(1.737305,0,0,1.737305,-407,-153)">
                <path d="M214.148,195.416C214.656,185.898 213.629,112.974 214.732,110.593C215.915,108.039 218.055,108.027 219.529,107.907C223.737,107.564 222.717,110.177 222.704,118.499C222.612,177.022 223.019,236.187 222.426,239.012C213.162,239.454 214.246,235.781 214.241,226.499C214.236,216.528 214.309,216.561 214.162,206.579C214.26,200.96 214.255,200.999 214.148,195.416Z" style="fill:rgb(252,251,251);"/>
            </g>
            <g transform="matrix(1.737305,0,0,1.737305,-407,-153)">
                <path d="M104.581,90.333C101.183,88.57 95.575,85.604 94.321,84.844C93.791,84.523 89.466,81.901 91.655,77.568C95.213,70.528 103.607,76.068 108.611,79.312C119.183,86.164 126.177,88.636 123.401,94.446C120.672,100.155 114.678,95.434 104.581,90.333Z" style="fill:rgb(235,83,58);"/>
            </g>
            <g transform="matrix(1.737305,0,0,1.737305,-407,-153)">
                <path d="M133.297,78.958C130.264,77.058 128.68,72.163 121.109,56.686C116.961,48.207 125.574,47.018 126.55,47.131C131.36,47.689 132.201,52.686 136.675,63.429C137.352,65.054 146.362,81.929 133.297,78.958Z" style="fill:rgb(235,83,58);"/>
            </g>
            <g transform="matrix(1.737305,0,0,1.737305,-407,-153)">
                <path d="M112.466,120.056C96.978,121.326 88.144,124.729 86.472,117.507C85.804,114.62 87.627,110.602 92.49,110.317C94.249,110.214 108.241,109.392 114.499,109.61C121.655,109.86 122.246,118.919 114.553,119.845C113.859,119.928 113.16,119.972 112.466,120.056Z" style="fill:rgb(235,83,58);"/>
            </g>
            <g transform="matrix(1.737305,0,0,1.737305,-407,-153)">
                <path d="M253.497,191.767C243.216,189.331 246.549,174.386 251.383,172.263C260.776,168.137 265.4,189.169 253.497,191.767Z" style="fill:rgb(253,251,251);"/>
            </g>
        </g>
    </g>
</svg>
